<?xml version="1.0" encoding="UTF-8"?><svg version="1.1" viewBox="0 0 64 64" xmlns="http://www.w3.org/2000/svg" xmlns:xlink="http://www.w3.org/1999/xlink"><!--Generated by IJSVG (https://github.com/iconjar/IJSVG)--><path d="M7.38238,51.0881l-2.38238,11.9119l11.9123,-2.3824c1.5964,-0.3193 3.2136,-0.5089 4.8248,-0.7423c5.9547,-0.8625 10.4902,-6.0937 10.2541,-12.3412c-0.2236,-5.9139 -5.6113,-11.3017 -11.5252,-11.5253c-6.24752,-0.2361 -11.4788,4.2994 -12.3413,10.2541c-0.2334,1.6113 -0.423,3.2287 -0.7423,4.8252Z" fill="#54FEBD"></path><path fill="#1D1B4C" d="M33.6992,45.79c-0.46875,0 -0.8877,-0.33105 -0.98047,-0.80811c-1.31836,-6.74902 -6.95215,-12.3833 -13.7002,-13.7007c-0.54199,-0.10596 -0.89551,-0.63086 -0.79004,-1.17285c0.10547,-0.54248 0.62891,-0.89697 1.17285,-0.79004c7.52637,1.46924 13.8105,7.75293 15.2803,15.2798c0.10547,0.54248 -0.24805,1.06738 -0.79004,1.17334c-0.06444,0.01269 -0.12889,0.01855 -0.19237,0.01855Z"></path><g fill="#1D1B4C"><path d="M1,64c-0.2627,0 -0.51758,-0.10352 -0.70703,-0.29297c-0.23633,-0.23633 -0.33887,-0.5752 -0.27344,-0.90332l2.38281,-11.9121c0.23242,-1.16357 0.39941,-2.37451 0.56055,-3.54492l0.17285,-1.22754c0.94238,-6.50391 6.70996,-11.3696 13.3682,-11.1099c6.40918,0.24268 12.2441,6.07764 12.4863,12.4873c0.25293,6.66699 -4.52344,12.4141 -11.1094,13.3687l-1.22656,0.17188c-1.1709,0.16162 -2.38184,0.32813 -3.5459,0.56104l-11.9121,2.38232c-0.06543,0.01318 -0.13086,0.01953 -0.19629,0.01953Zm15,-27c-5.42969,0 -10.1084,4.04346 -10.8857,9.40625l-0.16992,1.21338c-0.16504,1.2002 -0.33594,2.44141 -0.58105,3.66455l-2.08888,10.4409l10.4414,-2.08789c1.22363,-0.24463 2.46484,-0.41602 3.66504,-0.58154l1.21289,-0.16992c5.57129,-0.80713 9.61133,-5.6709 9.39844,-11.314c-0.20508,-5.42236 -5.1416,-10.3589 -10.5645,-10.5635c-0.14258,-0.00587 -0.28614,-0.00831 -0.42774,-0.00831Z"></path><path d="M28.001,49.0898c-0.37012,0 -0.72559,-0.20605 -0.89941,-0.56055c-0.24219,-0.49609 -0.03711,-1.09473 0.45898,-1.33789c19.2392,-9.41406 33.4736,-34.4219 34.3926,-45.144c-10.7227,0.91895 -35.7305,15.1533 -45.1445,34.3921c-0.24219,0.49609 -0.83984,0.70068 -1.33789,0.45898c-0.49609,-0.24316 -0.70117,-0.8418 -0.45898,-1.33789c10.2246,-20.896 37.2441,-35.5605 47.9883,-35.5605c0.55273,0 1,0.44775 1,1c0,10.7437 -14.6641,37.7632 -35.5605,47.9883c-0.1416,0.06885 -0.29101,0.10156 -0.43847,0.10156Z"></path><path d="M0.99902,64c-0.20898,0 -0.41895,-0.06494 -0.59863,-0.2002c-0.44238,-0.33105 -0.53223,-0.95801 -0.2002,-1.3999c3.94531,-5.26025 7.43652,-10.9097 10.377,-16.7915l0.52832,-1.05615c0.24805,-0.49365 0.84766,-0.69531 1.3418,-0.44629c0.49414,0.24707 0.69434,0.84766 0.44727,1.3418l-0.52832,1.05566c-2.99414,5.98828 -6.54883,11.7407 -10.5664,17.0967c-0.19628,0.26172 -0.49707,0.3999 -0.80078,0.3999Z"></path><path d="M1.00098,64c-0.30469,0 -0.60449,-0.13818 -0.80078,-0.3999c-0.33203,-0.44189 -0.24219,-1.06885 0.2002,-1.3999c5.3877,-4.04053 11.3271,-7.25586 17.6553,-9.55762l1.60254,-0.58252c0.52148,-0.18848 1.09277,0.0791 1.28125,0.59814c0.18945,0.51904 -0.0791,1.09277 -0.59766,1.28174l-1.60254,0.58252c-6.14258,2.23389 -11.9092,5.35547 -17.1396,9.27734c-0.17969,0.13526 -0.38965,0.2002 -0.59863,0.2002Z"></path><path d="M56,9c-0.25977,0 -0.52051,-0.11035 -0.70996,-0.29004c-0.18066,-0.18994 -0.29004,-0.45019 -0.29004,-0.70996c0,-0.26025 0.10938,-0.52002 0.29004,-0.70996c0.37012,-0.37012 1.04004,-0.37012 1.41992,0c0.17969,0.18994 0.29004,0.44971 0.29004,0.70996c0,0.25977 -0.11035,0.52002 -0.29004,0.70996c-0.19043,0.17969 -0.45019,0.29004 -0.70996,0.29004Z"></path><path d="M53,12c-0.25977,0 -0.52051,-0.11035 -0.70996,-0.29004c-0.18066,-0.18994 -0.29004,-0.45019 -0.29004,-0.70996c0,-0.26025 0.10938,-0.52002 0.29004,-0.70996c0.37012,-0.37012 1.04004,-0.37012 1.41992,0c0.17969,0.17969 0.29004,0.43994 0.29004,0.70996c0,0.27002 -0.11035,0.52002 -0.2998,0.70996c-0.18067,0.17969 -0.44043,0.29004 -0.7002,0.29004Z"></path><path d="M43,64h-16c-0.55273,0 -1,-0.44775 -1,-1c0,-0.55225 0.44727,-1 1,-1h16c0.55273,0 1,0.44775 1,1c0,0.55225 -0.44727,1 -1,1Z"></path><path d="M23,64c-0.25977,0 -0.52051,-0.11035 -0.70996,-0.29004c-0.18066,-0.18994 -0.29004,-0.43994 -0.29004,-0.70996c0,-0.27002 0.10938,-0.52002 0.29004,-0.70996c0.37012,-0.37012 1.04004,-0.37012 1.41992,0c0.17969,0.18994 0.29004,0.44971 0.29004,0.70996c0,0.25977 -0.11035,0.52002 -0.29004,0.70996c-0.19043,0.17969 -0.45019,0.29004 -0.70996,0.29004Z"></path><path d="M19,64c-0.27051,0 -0.52051,-0.11035 -0.70996,-0.29004c-0.18066,-0.18994 -0.29004,-0.45019 -0.29004,-0.70996c0,-0.26025 0.09961,-0.52002 0.29004,-0.70996c0.37988,-0.37012 1.0498,-0.37012 1.41992,0c0.17969,0.18994 0.29004,0.44971 0.29004,0.70996c0,0.25977 -0.11035,0.52002 -0.29004,0.70996c-0.19043,0.17969 -0.44043,0.29004 -0.70996,0.29004Z"></path><path d="M15,64c-0.25977,0 -0.52051,-0.11035 -0.70996,-0.29004c-0.18066,-0.18994 -0.29004,-0.43994 -0.29004,-0.70996c0,-0.27002 0.10938,-0.52002 0.29004,-0.70996c0.35938,-0.37012 1.0498,-0.37012 1.41992,0c0.17969,0.18994 0.29004,0.44971 0.29004,0.70996c0,0.27002 -0.11035,0.52002 -0.29004,0.70996c-0.19043,0.17969 -0.45019,0.29004 -0.70996,0.29004Z"></path><path d="M56,15c-0.25977,0 -0.52051,-0.11035 -0.70996,-0.29004c-0.18066,-0.18994 -0.29004,-0.45019 -0.29004,-0.70996c0,-0.26025 0.10938,-0.52002 0.29004,-0.70996c0.37012,-0.37012 1.0498,-0.37012 1.41992,0c0.17969,0.18994 0.29004,0.44971 0.29004,0.70996c0,0.25977 -0.11035,0.52002 -0.29004,0.70996c-0.19043,0.17969 -0.45019,0.29004 -0.70996,0.29004Z"></path><path d="M53,18c-0.27051,0 -0.52051,-0.11035 -0.70996,-0.29004c-0.18066,-0.18994 -0.29004,-0.45019 -0.29004,-0.70996c0,-0.26025 0.10938,-0.52002 0.29004,-0.70996c0.37012,-0.37012 1.04004,-0.37012 1.41992,0c0.17969,0.18994 0.29004,0.43994 0.29004,0.70996c0,0.25977 -0.11035,0.52002 -0.2998,0.70996c-0.18067,0.17969 -0.43067,0.29004 -0.7002,0.29004Z"></path><path d="M50,15c-0.25977,0 -0.52051,-0.11035 -0.70996,-0.29004c-0.18066,-0.18994 -0.29004,-0.43994 -0.29004,-0.70996c0,-0.26025 0.10938,-0.52002 0.29004,-0.70996c0.37012,-0.37012 1.0498,-0.37012 1.41992,0c0.17969,0.18994 0.29004,0.44971 0.29004,0.70996c0,0.25977 -0.11035,0.52002 -0.29004,0.70996c-0.19043,0.17969 -0.44043,0.29004 -0.70996,0.29004Z"></path><path d="M50,9c-0.25977,0 -0.52051,-0.11035 -0.70996,-0.29004c-0.18066,-0.18994 -0.29004,-0.45019 -0.29004,-0.70996c0,-0.27002 0.10938,-0.52002 0.29004,-0.70996c0.37012,-0.37012 1.0498,-0.37012 1.41992,0c0.17969,0.18994 0.29004,0.44971 0.29004,0.70996c0,0.25977 -0.11035,0.52002 -0.29004,0.70996c-0.19043,0.17969 -0.44043,0.29004 -0.70996,0.29004Z"></path><path d="M47,12c-0.25977,0 -0.52051,-0.11035 -0.70996,-0.29004c-0.18066,-0.18994 -0.29004,-0.43994 -0.29004,-0.70996c0,-0.26025 0.10938,-0.52002 0.29004,-0.70996c0.37012,-0.37012 1.04004,-0.37012 1.41992,0c0.17969,0.18994 0.29004,0.44971 0.29004,0.70996c0,0.25977 -0.11035,0.52002 -0.29004,0.70996c-0.19043,0.17969 -0.45019,0.29004 -0.70996,0.29004Z"></path><path d="M50,21c-0.25977,0 -0.52051,-0.11035 -0.70996,-0.29004c-0.18066,-0.18994 -0.29004,-0.45019 -0.29004,-0.70996c0,-0.26025 0.10938,-0.52002 0.29004,-0.70996c0.37012,-0.37012 1.0498,-0.37012 1.41992,0c0.17969,0.18994 0.29004,0.44971 0.29004,0.70996c0,0.25977 -0.11035,0.52002 -0.29004,0.70996c-0.19043,0.17969 -0.44043,0.29004 -0.70996,0.29004Z"></path><path d="M47,18c-0.27051,0 -0.52051,-0.11035 -0.70996,-0.29004c-0.18066,-0.18994 -0.29004,-0.45019 -0.29004,-0.70996c0,-0.27002 0.10938,-0.52002 0.29004,-0.70996c0.37012,-0.37012 1.04004,-0.37012 1.41992,0c0.17969,0.18994 0.29004,0.44971 0.29004,0.70996c0,0.25977 -0.11035,0.52002 -0.29004,0.70996c-0.19043,0.17969 -0.44043,0.29004 -0.70996,0.29004Z"></path><path d="M44,15c-0.27051,0 -0.52051,-0.11035 -0.70996,-0.29004c-0.18066,-0.18994 -0.29004,-0.45019 -0.29004,-0.70996c0,-0.26025 0.10938,-0.52002 0.29004,-0.70996c0.37012,-0.37012 1.0498,-0.37012 1.41992,0c0.17969,0.18994 0.29004,0.44971 0.29004,0.70996c0,0.25977 -0.11035,0.52002 -0.29004,0.70996c-0.19043,0.17969 -0.44043,0.29004 -0.70996,0.29004Z"></path></g></svg>