<?xml version="1.0" encoding="UTF-8"?><svg version="1.1" viewBox="0 0 64 64" xmlns="http://www.w3.org/2000/svg" xmlns:xlink="http://www.w3.org/1999/xlink"><!--Generated by IJSVG (https://github.com/iconjar/IJSVG)--><path d="M7,11l48,24l-37,-3Z" fill="#54FEBD"></path><path fill="#1D1B4C" d="M49.001,30c-0.02734,0 -0.05469,-0.00098 -0.08203,-0.00293l-37,-3c-0.3418,-0.02832 -0.64551,-0.22949 -0.80469,-0.5332l-11,-21c-0.20117,-0.38379 -0.13184,-0.85449 0.17187,-1.16407c0.30371,-0.30958 0.77246,-0.38867 1.16113,-0.19434l47.8945,23.9473c0.39453,0.13477 0.67773,0.50782 0.67773,0.94727c0,0.55273 -0.44727,1 -1,1c-0.00488,0 -0.01367,0 -0.01855,0Zm-36.3711,-4.95215l31.3066,2.53809l-40.6133,-20.3066l9.30664,17.7686Z"></path><g fill="#1D1B4C"><path d="M29.3105,20.1504c-0.31543,0 -0.62598,-0.14941 -0.82031,-0.42773c-0.31641,-0.45215 -0.20605,-1.07617 0.24707,-1.3916l21.6904,-15.1504c0.45215,-0.31738 1.0752,-0.2041 1.3916,0.24707c0.31641,0.45215 0.20605,1.07617 -0.24707,1.3916l-21.6904,15.1504c-0.17383,0.12207 -0.37403,0.18066 -0.57129,0.18066Z"></path><path d="M49.001,30c-0.02637,0 -0.05371,-0.00098 -0.08105,-0.00293c-0.5498,-0.04395 -0.96094,-0.52637 -0.91699,-1.07715l2,-25c0.04395,-0.5498 0.5127,-0.95508 1.07715,-0.91699c0.5498,0.04395 0.96094,0.52637 0.91699,1.07715l-2,25c-0.042,0.52344 -0.4795,0.91992 -0.9961,0.91992Z"></path><path d="M50.1299,15.9199c-0.40234,0 -0.78223,-0.24414 -0.93359,-0.64258c-0.19727,-0.5166 0.06055,-1.09473 0.57617,-1.29102l10.7471,-4.1084l-9.9668,-4.9834c-0.49414,-0.24707 -0.69434,-0.84766 -0.44727,-1.3418c0.24805,-0.49414 0.84766,-0.69238 1.3418,-0.44727l12,6c0.35449,0.17773 0.57129,0.54785 0.55176,0.94336c-0.01953,0.39648 -0.27148,0.74316 -0.6416,0.88477l-12.8701,4.91994c-0.11816,0.04492 -0.23828,0.0664 -0.35742,0.0664Z"></path><path d="M1,64c-0.09375,0 -0.18945,-0.01367 -0.28516,-0.04102c-0.5293,-0.1582 -0.83105,-0.71484 -0.67383,-1.24414l11,-37c0.1582,-0.5293 0.70898,-0.8252 1.24414,-0.67383c0.5293,0.1582 0.83105,0.71484 0.67383,1.24414l-11,37c-0.12988,0.43458 -0.52734,0.71485 -0.95898,0.71485Z"></path><path d="M1.00098,64c-0.31348,0 -0.62207,-0.14648 -0.81738,-0.42188c-0.31836,-0.45117 -0.21191,-1.0752 0.23828,-1.39453l48,-34c0.45117,-0.31836 1.07422,-0.21289 1.39453,0.23828c0.31836,0.45117 0.21191,1.0752 -0.23828,1.39453l-48,34c-0.17579,0.12403 -0.37696,0.1836 -0.57715,0.1836Z"></path><path d="M23.6113,17.2998c-0.34961,0 -0.68848,-0.18359 -0.87207,-0.50977l-8.61035,-15.2998c-0.27148,-0.48145 -0.10059,-1.09082 0.38086,-1.36133c0.48145,-0.27246 1.09082,-0.10059 1.36133,0.38086l8.61035,15.2998c0.27148,0.48145 0.10059,1.09082 -0.38086,1.36133c-0.15528,0.0879 -0.32325,0.12891 -0.48926,0.12891Z"></path><path d="M14.9102,12.3799c-0.00293,0 -0.00586,0 -0.00879,0c-0.55176,-0.00488 -0.99609,-0.45605 -0.99121,-1.00879l0.08984,-10.3799c0.00488,-0.54883 0.45117,-0.99121 1,-0.99121c0.00293,0 0.00586,0 0.00879,0c0.55176,0.00488 0.99609,0.45605 0.99121,1.00879l-0.08984,10.3799c-0.00489,0.54883 -0.45118,0.99121 -1,0.99121Z"></path><path d="M20.7402,48.46c-0.39453,0 -0.76855,-0.23438 -0.92578,-0.62305l-8.74023,-21.46c-0.20898,-0.51172 0.03711,-1.09473 0.54883,-1.30273c0.50879,-0.21094 1.09473,0.03613 1.30273,0.54883l8.74023,21.46c0.20898,0.51172 -0.03711,1.09473 -0.54883,1.30273c-0.12304,0.05078 -0.25097,0.07422 -0.37695,0.07422Z"></path></g></svg>