<?xml version="1.0" encoding="UTF-8"?><svg version="1.1" viewBox="0 0 64 64" xmlns="http://www.w3.org/2000/svg" xmlns:xlink="http://www.w3.org/1999/xlink"><!--Generated by IJSVG (https://github.com/iconjar/IJSVG)--><path d="M14.0323,9.6774l-3.5829,-3.5829c-1.45939,-1.4593 -3.8262,-1.4593 -5.2949,0l-4.06,4.06c-1.4593,1.4687 -1.4593,3.8355 0,5.2949l3.5829,3.5829l41.1613,41.1612l12.1613,2.8065l-2.80651,-12.1613l-41.1612,-41.1613Z" fill="#54FEBD"></path><path fill="#1D1B4C" d="M11,64c-0.25586,0 -0.51172,-0.09766 -0.70703,-0.29297l-10,-10c-0.39063,-0.39063 -0.39063,-1.02344 0,-1.41406l21,-21c0.39063,-0.39063 1.02344,-0.39063 1.41406,0c0.39062,0.39063 0.39063,1.02344 0,1.41406l-20.293,20.293l8.58594,8.58594l20.293,-20.293c0.39063,-0.39063 1.02344,-0.39063 1.41406,0c0.39062,0.39063 0.39063,1.02344 0,1.41406l-21,21c-0.19531,0.19531 -0.45117,0.29297 -0.70703,0.29297Z"></path><g fill="#1D1B4C"><path d="M42,33c-0.25586,0 -0.51172,-0.09766 -0.70703,-0.29297c-0.39063,-0.39063 -0.39063,-1.02344 0,-1.41406l20.293,-20.293l-8.58594,-8.58594l-20.293,20.293c-0.39063,0.39063 -1.02344,0.39063 -1.41406,0c-0.39062,-0.39063 -0.39063,-1.02344 0,-1.41406l21,-21c0.39063,-0.39063 1.02344,-0.39063 1.41406,0l10,10c0.39063,0.39063 0.39063,1.02344 0,1.41406l-21,21c-0.19531,0.19531 -0.45117,0.29297 -0.70703,0.29297Z"></path><path d="M6,17c-0.25586,0 -0.51172,-0.09766 -0.70703,-0.29297c-0.39063,-0.39063 -0.39063,-1.02344 0,-1.41406l10,-10c0.39063,-0.39063 1.02344,-0.39063 1.41406,0c0.39062,0.39063 0.39063,1.02344 0,1.41406l-10,10c-0.19531,0.19531 -0.45117,0.29297 -0.70703,0.29297Z"></path><path d="M63,64c-0.07471,0 -0.15039,-0.00879 -0.2251,-0.02539l-13,-3c-0.18262,-0.04199 -0.34961,-0.13477 -0.48193,-0.26758l-47.8301,-47.8301c-1.94434,-1.94336 -1.94531,-5.11621 -0.00244,-7.07227l4.34229,-4.3418c0.95019,-0.94433 2.20703,-1.46288 3.54101,-1.46288c1.33496,0 2.58984,0.51953 3.5332,1.46289l47.8301,47.8301c0.13281,0.13281 0.2251,0.2998 0.26758,0.48242l3,13c0.07715,0.33594 -0.02393,0.6875 -0.26758,0.93164c-0.18945,0.18945 -0.44482,0.29297 -0.70703,0.29297Zm-12.4956,-4.91016l11.1616,2.57617l-2.57568,-11.1621l-47.6274,-47.627c-1.13232,-1.13281 -3.1084,-1.13184 -4.24854,0.00293l-4.3374,4.33692c-1.16602,1.17383 -1.16699,3.0791 0,4.24609l47.6274,47.627Z"></path><path d="M8,53c-0.25586,0 -0.51172,-0.09766 -0.70703,-0.29297l-3,-3c-0.39063,-0.39063 -0.39063,-1.02344 0,-1.41406c0.39063,-0.39062 1.02344,-0.39063 1.41406,0l3,3c0.39063,0.39063 0.39063,1.02344 0,1.41406c-0.19531,0.19531 -0.45117,0.29297 -0.70703,0.29297Z"></path><path d="M12,49c-0.25586,0 -0.51172,-0.09766 -0.70703,-0.29297l-3,-3c-0.39063,-0.39063 -0.39063,-1.02344 0,-1.41406c0.39063,-0.39062 1.02344,-0.39063 1.41406,0l3,3c0.39063,0.39063 0.39063,1.02344 0,1.41406c-0.19531,0.19531 -0.45117,0.29297 -0.70703,0.29297Z"></path><path d="M16,45c-0.25586,0 -0.51172,-0.09766 -0.70703,-0.29297l-3,-3c-0.39063,-0.39063 -0.39063,-1.02344 0,-1.41406c0.39063,-0.39062 1.02344,-0.39063 1.41406,0l3,3c0.39063,0.39063 0.39063,1.02344 0,1.41406c-0.19531,0.19531 -0.45117,0.29297 -0.70703,0.29297Z"></path><path d="M20,41c-0.25586,0 -0.51172,-0.09766 -0.70703,-0.29297l-3,-3c-0.39063,-0.39063 -0.39063,-1.02344 0,-1.41406c0.39063,-0.39062 1.02344,-0.39063 1.41406,0l3,3c0.39063,0.39063 0.39063,1.02344 0,1.41406c-0.19531,0.19531 -0.45117,0.29297 -0.70703,0.29297Z"></path><path d="M40,21c-0.25586,0 -0.51172,-0.09766 -0.70703,-0.29297l-3,-3c-0.39063,-0.39063 -0.39063,-1.02344 0,-1.41406c0.39063,-0.39062 1.02344,-0.39063 1.41406,0l3,3c0.39063,0.39063 0.39063,1.02344 0,1.41406c-0.19531,0.19531 -0.45117,0.29297 -0.70703,0.29297Z"></path><path d="M44,17c-0.25586,0 -0.51172,-0.09766 -0.70703,-0.29297l-3,-3c-0.39063,-0.39063 -0.39063,-1.02344 0,-1.41406c0.39063,-0.39062 1.02344,-0.39063 1.41406,0l3,3c0.39063,0.39063 0.39063,1.02344 0,1.41406c-0.19531,0.19531 -0.45117,0.29297 -0.70703,0.29297Z"></path><path d="M48,13c-0.25586,0 -0.51172,-0.09766 -0.70703,-0.29297l-3,-3c-0.39063,-0.39063 -0.39063,-1.02344 0,-1.41406c0.39063,-0.39062 1.02344,-0.39063 1.41406,0l3,3c0.39063,0.39063 0.39063,1.02344 0,1.41406c-0.19531,0.19531 -0.45117,0.29297 -0.70703,0.29297Z"></path><path d="M52,9c-0.25586,0 -0.51172,-0.09766 -0.70703,-0.29297l-3,-3c-0.39063,-0.39063 -0.39063,-1.02344 0,-1.41406c0.39063,-0.39062 1.02344,-0.39063 1.41406,0l3,3c0.39063,0.39063 0.39063,1.02344 0,1.41406c-0.19531,0.19531 -0.45117,0.29297 -0.70703,0.29297Z"></path><path d="M50,61c-0.25586,0 -0.51172,-0.09766 -0.70703,-0.29297c-0.39063,-0.39063 -0.39063,-1.02344 0,-1.41406l10,-10c0.39063,-0.39063 1.02344,-0.39063 1.41406,0c0.39062,0.39063 0.39063,1.02344 0,1.41406l-10,10c-0.19531,0.19531 -0.45117,0.29297 -0.70703,0.29297Z"></path><path d="M56.5,62.5c-0.25586,0 -0.51172,-0.09766 -0.70703,-0.29297c-0.39063,-0.39063 -0.39063,-1.02344 0,-1.41406l5,-5c0.39063,-0.39063 1.02344,-0.39063 1.41406,0c0.39062,0.39063 0.39063,1.02344 0,1.41406l-5,5c-0.19531,0.19531 -0.45117,0.29297 -0.70703,0.29297Z"></path><path d="M3,14c-0.25586,0 -0.51172,-0.09766 -0.70703,-0.29297c-0.39063,-0.39063 -0.39063,-1.02344 0,-1.41406l10,-10c0.39063,-0.39063 1.02344,-0.39063 1.41406,0c0.39062,0.39063 0.39063,1.02344 0,1.41406l-10,10c-0.19531,0.19531 -0.45117,0.29297 -0.70703,0.29297Z"></path><path d="M57,54c-0.25586,0 -0.51172,-0.09766 -0.70703,-0.29297l-44,-44c-0.39063,-0.39063 -0.39063,-1.02344 0,-1.41406c0.39063,-0.39062 1.02344,-0.39063 1.41406,0l44,44c0.39063,0.39063 0.39063,1.02344 0,1.41406c-0.19531,0.19531 -0.45117,0.29297 -0.70703,0.29297Z"></path><path d="M53,58c-0.25586,0 -0.51172,-0.09766 -0.70703,-0.29297l-44,-44c-0.39063,-0.39063 -0.39063,-1.02344 0,-1.41406c0.39063,-0.39062 1.02344,-0.39063 1.41406,0l44,44c0.39063,0.39063 0.39063,1.02344 0,1.41406c-0.19531,0.19531 -0.45117,0.29297 -0.70703,0.29297Z"></path><path d="M32,17c-0.27002,0 -0.52002,-0.11035 -0.70996,-0.2998c-0.18018,-0.18067 -0.29004,-0.44043 -0.29004,-0.7002c0,-0.27051 0.10986,-0.53027 0.2998,-0.70996c0.3501,-0.36035 1.04004,-0.37012 1.41016,0c0.17969,0.17969 0.29004,0.43945 0.29004,0.70996c0,0.25977 -0.11035,0.51953 -0.29004,0.70996c-0.18994,0.17969 -0.45019,0.29004 -0.70996,0.29004Z"></path><path d="M32,13c-0.27002,0 -0.52002,-0.11035 -0.70996,-0.2998c-0.18018,-0.18067 -0.29004,-0.44043 -0.29004,-0.7002c0,-0.27051 0.10986,-0.52051 0.2998,-0.70996c0.3501,-0.36035 1.02979,-0.37012 1.41016,0c0.17969,0.18945 0.29004,0.43945 0.29004,0.70996c0,0.25977 -0.11035,0.51953 -0.29004,0.70996c-0.18994,0.17969 -0.45019,0.29004 -0.70996,0.29004Z"></path><path d="M32,9c-0.26025,0 -0.52002,-0.11035 -0.70996,-0.29004c-0.18018,-0.19043 -0.29004,-0.45019 -0.29004,-0.70996c0,-0.25977 0.10986,-0.52051 0.29004,-0.70996c0.37988,-0.37012 1.03955,-0.37012 1.41992,0c0.17969,0.18945 0.29004,0.45019 0.29004,0.70996c0,0.25977 -0.11035,0.51953 -0.29004,0.70996c-0.18994,0.17969 -0.45019,0.29004 -0.70996,0.29004Z"></path><path d="M32,5c-0.26025,0 -0.52002,-0.11035 -0.70996,-0.29004c-0.18018,-0.19043 -0.29004,-0.45019 -0.29004,-0.70996c0,-0.25977 0.10986,-0.52051 0.29004,-0.70996c0.37988,-0.37012 1.0498,-0.37012 1.41992,0c0.17969,0.18945 0.29004,0.45019 0.29004,0.70996c0,0.25977 -0.11035,0.51953 -0.29004,0.7002c-0.18994,0.18945 -0.45019,0.2998 -0.70996,0.2998Z"></path><path d="M32,61c-0.26025,0 -0.52002,-0.11035 -0.70996,-0.29004c-0.18018,-0.19043 -0.29004,-0.45019 -0.29004,-0.70996c0,-0.27051 0.10986,-0.52051 0.29004,-0.70996c0.37988,-0.37012 1.03955,-0.37012 1.41992,0c0.17969,0.18945 0.29004,0.43945 0.29004,0.70996c0,0.25977 -0.11035,0.51953 -0.29004,0.70996c-0.18994,0.17969 -0.45019,0.29004 -0.70996,0.29004Z"></path><path d="M32,57c-0.26025,0 -0.52002,-0.11035 -0.70996,-0.29004c-0.18018,-0.19043 -0.29004,-0.45019 -0.29004,-0.70996c0,-0.27051 0.10986,-0.52051 0.29004,-0.70996c0.37988,-0.37012 1.0498,-0.37012 1.41992,0c0.17969,0.18945 0.29004,0.45019 0.29004,0.70996c0,0.25977 -0.11035,0.51953 -0.29004,0.70996c-0.18994,0.17969 -0.45019,0.29004 -0.70996,0.29004Z"></path><path d="M32,53c-0.26025,0 -0.52002,-0.11035 -0.70996,-0.29004c-0.18018,-0.19043 -0.29004,-0.45019 -0.29004,-0.70996c0,-0.27051 0.10986,-0.52051 0.29004,-0.70996c0.36963,-0.37012 1.03955,-0.37012 1.41992,0c0.17969,0.18945 0.29004,0.45019 0.29004,0.70996c0,0.25977 -0.11035,0.51953 -0.29004,0.70996c-0.18994,0.17969 -0.45019,0.29004 -0.70996,0.29004Z"></path><path d="M32,49c-0.26025,0 -0.52002,-0.11035 -0.70996,-0.29004c-0.18018,-0.19043 -0.29004,-0.45019 -0.29004,-0.70996c0,-0.25977 0.10986,-0.52051 0.29004,-0.70996c0.36963,-0.37012 1.03955,-0.37012 1.41992,0c0.17969,0.18945 0.29004,0.45019 0.29004,0.70996c0,0.25977 -0.11035,0.51953 -0.29004,0.70996c-0.18994,0.17969 -0.45019,0.29004 -0.70996,0.29004Z"></path><path d="M48,33c-0.27002,0 -0.52002,-0.11035 -0.70996,-0.2998c-0.18018,-0.18067 -0.29004,-0.43067 -0.29004,-0.7002c0,-0.27051 0.10986,-0.52051 0.29004,-0.70996c0.36963,-0.37012 1.0498,-0.37012 1.41992,0c0.17969,0.18945 0.29004,0.43945 0.29004,0.70996c0,0.26953 -0.11035,0.51953 -0.29004,0.70996c-0.18994,0.17969 -0.43994,0.29004 -0.70996,0.29004Z"></path><path d="M52,33c-0.26025,0 -0.52002,-0.11035 -0.70996,-0.29004c-0.18018,-0.19043 -0.29004,-0.45019 -0.29004,-0.70996c0,-0.25977 0.10986,-0.52051 0.29004,-0.70996c0.37988,-0.37012 1.0498,-0.37012 1.41992,0c0.17969,0.18945 0.29004,0.45019 0.29004,0.70996c0,0.25977 -0.11035,0.51953 -0.30029,0.70996c-0.17969,0.17969 -0.43994,0.29004 -0.69971,0.29004Z"></path><path d="M56,33c-0.26025,0 -0.52002,-0.11035 -0.70996,-0.29004c-0.18018,-0.19043 -0.29004,-0.45019 -0.29004,-0.70996c0,-0.25977 0.10986,-0.52051 0.29004,-0.70996c0.37988,-0.37012 1.03955,-0.37012 1.41992,0c0.17969,0.18945 0.29004,0.45019 0.29004,0.70996c0,0.25977 -0.11035,0.51953 -0.29004,0.70996c-0.18994,0.17969 -0.45019,0.29004 -0.70996,0.29004Z"></path><path d="M60,33c-0.26025,0 -0.52002,-0.11035 -0.70996,-0.2998c-0.18018,-0.18067 -0.29004,-0.43067 -0.29004,-0.7002c0,-0.27051 0.10986,-0.52051 0.29004,-0.70996c0.36963,-0.37012 1.03955,-0.37012 1.41992,0c0.17969,0.18945 0.29004,0.45019 0.29004,0.70996c0,0.25977 -0.11035,0.51953 -0.29004,0.70996c-0.18994,0.17969 -0.45019,0.29004 -0.70996,0.29004Z"></path><path d="M4,33c-0.26025,0 -0.52002,-0.11035 -0.70996,-0.29004c-0.18018,-0.19043 -0.29004,-0.45019 -0.29004,-0.70996c0,-0.25977 0.10986,-0.52051 0.29004,-0.70996c0.37988,-0.37012 1.0498,-0.37012 1.41992,0c0.17969,0.18945 0.29004,0.45019 0.29004,0.70996c0,0.26953 -0.11035,0.51953 -0.30029,0.70996c-0.17969,0.17969 -0.43994,0.29004 -0.69971,0.29004Z"></path><path d="M8,33c-0.26025,0 -0.52002,-0.11035 -0.70996,-0.29004c-0.18018,-0.19043 -0.29004,-0.45019 -0.29004,-0.70996c0,-0.25977 0.10986,-0.52051 0.29004,-0.70996c0.37988,-0.37012 1.03955,-0.37012 1.41992,0c0.17969,0.18945 0.29004,0.45019 0.29004,0.70996c0,0.25977 -0.11035,0.51953 -0.29004,0.70996c-0.18994,0.17969 -0.45019,0.29004 -0.70996,0.29004Z"></path><path d="M12,33c-0.26025,0 -0.52002,-0.11035 -0.70996,-0.2998c-0.18018,-0.18067 -0.29004,-0.43067 -0.29004,-0.7002c0,-0.27051 0.10986,-0.52051 0.29004,-0.70996c0.36963,-0.37012 1.03955,-0.37012 1.41992,0c0.17969,0.18945 0.29004,0.45019 0.29004,0.70996c0,0.25977 -0.11035,0.51953 -0.29004,0.70996c-0.18994,0.17969 -0.45019,0.29004 -0.70996,0.29004Z"></path><path d="M16,33c-0.27002,0 -0.52002,-0.11035 -0.70996,-0.2998c-0.18018,-0.18067 -0.29004,-0.43067 -0.29004,-0.7002c0,-0.27051 0.10986,-0.52051 0.29004,-0.70996c0.36963,-0.37012 1.0498,-0.37012 1.41992,0c0.17969,0.18945 0.29004,0.43945 0.29004,0.70996c0,0.26953 -0.11035,0.51953 -0.29004,0.70996c-0.18994,0.17969 -0.45019,0.29004 -0.70996,0.29004Z"></path></g></svg>